HIERARCHY
ROOT Hips
{
	OFFSET	0.00	0.00	0.00
	CHANNELS 6 Xposition Yposition Zposition Zrotation Xrotation Yrotation
	JOINT LeftUpLeg
	{
		OFFSET	 0.126116	-0.014019	-0.065224
		CHANNELS 3 Zrotation Xrotation Yrotation
		JOINT LeftLeg
		{
			OFFSET	 0.000000	 0.000000	 0.569914
			CHANNELS 3 Zrotation Xrotation Yrotation
			JOINT LeftFoot
			{
				OFFSET	 0.000000	 0.000000	 0.544423
				CHANNELS 3 Zrotation Xrotation Yrotation
				JOINT LeftToeBase
				{
					OFFSET	 0.000000	 0.000000	 0.207117
					CHANNELS 3 Zrotation Xrotation Yrotation
					End Site
					{
						OFFSET	 0.000000	 0.000000	 0.207117
					}
				}
			}
		}
	}
	JOINT RightUpLeg
	{
		OFFSET	-0.124023	-0.008373	-0.065224
		CHANNELS 3 Zrotation Xrotation Yrotation
		JOINT RightLeg
		{
			OFFSET	 0.000000	 0.000000	 0.570047
			CHANNELS 3 Zrotation Xrotation Yrotation
			JOINT RightFoot
			{
				OFFSET	 0.000000	 0.000000	 0.544354
				CHANNELS 3 Zrotation Xrotation Yrotation
				JOINT RightToeBase
				{
					OFFSET	 0.000000	 0.000000	 0.207540
					CHANNELS 3 Zrotation Xrotation Yrotation
					End Site
					{
						OFFSET	 0.000000	 0.000000	 0.207540
					}
				}
			}
		}
	}
	JOINT Spine
	{
		OFFSET	 0.000184	-0.007763	 0.117403
		CHANNELS 3 Zrotation Xrotation Yrotation
		JOINT Spine1
		{
			OFFSET	 0.000000	 0.000000	 0.137269
			CHANNELS 3 Zrotation Xrotation Yrotation
			JOINT Spine2
			{
				OFFSET	 0.000000	 0.000000	 0.156879
				CHANNELS 3 Zrotation Xrotation Yrotation
				JOINT LeftShoulder
				{
					OFFSET	 0.080501	-0.002496	 0.160144
					CHANNELS 3 Zrotation Xrotation Yrotation
					JOINT LeftArm
					{
						OFFSET	 0.000000	 0.000000	 0.164363
						CHANNELS 3 Zrotation Xrotation Yrotation
						JOINT LeftForeArm
						{
							OFFSET	 0.000000	 0.000000	 0.364576
							CHANNELS 3 Zrotation Xrotation Yrotation
							JOINT LeftHand
							{
								OFFSET	 0.000000	 0.000000	 0.360812
								CHANNELS 3 Zrotation Xrotation Yrotation
								JOINT LeftHandIndex1
								{
									OFFSET	 0.000000	 0.000000	 0.086006
									CHANNELS 3 Zrotation Xrotation Yrotation
									JOINT LeftHandIndex2
									{
										OFFSET	 0.000000	 0.000000	 0.047237
										CHANNELS 3 Zrotation Xrotation Yrotation
										JOINT LeftHandIndex3
										{
											OFFSET	-0.004284	-0.000551	 0.038165
											CHANNELS 3 Zrotation Xrotation Yrotation
											End Site
											{
												OFFSET	-0.004284	-0.000551	 0.038165
											}
										}
									}
								}
							}
						}
					}
				}
				JOINT Neck
				{
					OFFSET	 0.000000	 0.000000	 0.176489
					CHANNELS 3 Zrotation Xrotation Yrotation
					JOINT Head
					{
						OFFSET	 0.000000	-0.001747	 0.077940
						CHANNELS 3 Zrotation Xrotation Yrotation
						End Site
						{
							OFFSET	 0.000000	-0.001747	 0.077940
						}
					}
				}
				JOINT RightShoulder
				{
					OFFSET	-0.080363	 0.000306	 0.159706
					CHANNELS 3 Zrotation Xrotation Yrotation
					JOINT RightArm
					{
						OFFSET	 0.000000	 0.000000	 0.164196
						CHANNELS 3 Zrotation Xrotation Yrotation
						JOINT RightForeArm
						{
							OFFSET	 0.000000	 0.000000	 0.365611
							CHANNELS 3 Zrotation Xrotation Yrotation
							JOINT RightHand
							{
								OFFSET	 0.000000	 0.000000	 0.360648
								CHANNELS 3 Zrotation Xrotation Yrotation
								JOINT RightHandIndex1
								{
									OFFSET	 0.000000	 0.000000	 0.069977
									CHANNELS 3 Zrotation Xrotation Yrotation
									JOINT RightHandIndex2
									{
										OFFSET	 0.000000	 0.000000	 0.052305
										CHANNELS 3 Zrotation Xrotation Yrotation
										JOINT RightHandIndex3
										{
											OFFSET	 0.009002	-0.000782	 0.042196
											CHANNELS 3 Zrotation Xrotation Yrotation
											End Site
											{
												OFFSET	 0.009002	-0.000782	 0.042196
											}
										}
									}
								}
							}
						}
					}
				}
			}
		}
	}
}
MOTION
Frames:    7
Frame Time: 0.03333334
-0.644340	-0.130364	 1.248175	-161.155300	 6.755425	 9.130725	 8.808422	-13.499710	 162.985900	-9.118450	-31.312570	-3.738611	-80.190550	 77.427990	 76.875120	-2.385833	 28.452760	 0.000004	 8.909136	-49.145510	-179.135000	-29.241890	-57.705430	-15.655060	 26.130080	 33.666780	-38.585650	 2.384659	 28.388700	-0.000001	 28.530250	-17.071390	-15.609280	 46.226680	 25.768210	 0.179643	-7.908364	-3.239952	-2.311544	-91.776140	 78.527430	 180.000000	 16.751110	 48.349070	-48.850330	-5.847096	-0.079695	-0.492314	 7.692590	-3.372984	-4.152277	-4.131196	 21.524690	 0.986298	-5.167839	 0.733520	 3.519257	-1.378229	 35.397820	-2.634230	-14.119400	 16.454300	-7.480562	-26.096480	 3.566199	 5.452812	 89.782200	 78.203890	 179.999900	 1.863296	 63.245410	 0.969868	-4.445814	-0.141458	 0.455014	 102.793300	-18.977500	-3.070233	 5.715225	 19.176060	-3.692089	 5.027514	 0.245388	-9.378011	-2.350882	 35.473990	 5.254307
-0.643895	-0.130098	 1.248284	-161.455200	 6.984982	 9.704617	 8.625024	-13.830110	 162.410500	-8.981448	-31.450070	-3.681035	-78.270430	 77.566790	 74.763680	-2.385833	 28.452760	 0.000004	 10.319220	-49.330140	-179.234600	-27.267350	-57.845990	-13.963140	 32.714520	 38.681790	-41.394950	 2.384659	 28.388700	-0.000001	 28.480400	-17.641530	-16.193290	 46.337000	 25.866680	 0.482825	-7.872522	-2.977234	-2.617721	-91.776240	 78.527420	-179.999900	 17.031040	 48.243030	-49.114280	-5.682475	-0.081067	-0.491130	 8.070447	-3.093800	-4.265418	-4.131196	 21.524690	 0.986298	-5.167839	 0.733520	 3.519257	-1.378229	 35.397820	-2.634230	-13.980660	 16.428900	-7.899184	-26.171740	 3.416943	 5.471085	 89.782130	 78.203850	 180.000000	 2.034835	 63.170170	 0.857589	-4.653594	-0.142848	 0.453264	 102.311000	-19.480700	-3.075226	 5.715225	 19.176060	-3.692089	 5.027514	 0.245388	-9.378011	-2.350882	 35.473990	 5.254307
-0.643747	-0.129116	 1.248762	-161.637500	 6.821568	 9.681787	 9.388662	-13.685660	 162.399600	-8.836164	-31.275180	-3.586448	-84.683300	 78.588130	 80.711370	-2.385833	 28.452760	 0.000004	 10.433950	-49.076400	-179.215300	-24.713500	-58.079780	-11.787830	 38.893690	 42.897950	-44.451350	 2.384659	 28.388700	-0.000001	 28.214800	-18.696580	-16.882880	 46.683770	 27.911730	-0.477841	-7.891004	-3.831818	-2.320373	-91.776180	 78.527420	-180.000000	 16.985770	 48.230260	-49.131650	-5.336596	-0.084031	-0.490778	 8.357989	-2.923082	-4.379285	-4.131196	 21.524690	 0.986298	-5.167839	 0.733520	 3.519257	-1.378229	 35.397820	-2.634230	-13.989350	 16.324350	-7.847814	-26.183030	 3.363812	 5.275456	 89.782130	 78.203890	 180.000000	 2.088288	 63.216380	 0.913550	-5.244761	-0.147232	 0.450952	 102.274700	-18.222830	-1.863112	 5.715225	 19.176060	-3.692089	 5.027514	 0.245388	-9.378011	-2.350882	 35.473990	 5.254307
-0.643258	-0.127576	 1.249364	-161.824800	 6.593900	 9.538726	 10.437060	-13.423660	 162.478800	-8.630973	-30.978720	-3.449223	-95.080600	 79.609120	 90.561820	-2.385833	 28.452760	 0.000004	 9.694427	-48.734940	-179.400400	-21.711610	-58.246830	-9.223310	 45.935290	 47.105210	-48.496170	 2.384659	 28.388700	-0.000001	 27.893480	-19.844310	-17.557330	 47.159070	 30.249820	-1.744175	-7.903843	-4.850500	-1.906491	-91.776150	 78.527380	 180.000000	 16.879090	 48.239890	-49.102010	-4.915355	-0.087626	-0.490387	 8.658435	-2.749726	-4.503350	-4.131196	 21.524690	 0.986298	-5.167839	 0.733520	 3.519257	-1.378229	 35.397820	-2.634230	-14.026190	 16.192930	-7.702940	-26.184160	 3.322680	 5.017088	 89.782060	 78.203900	-180.000000	 2.235560	 63.284330	 0.926601	-5.976397	-0.152589	 0.447941	 102.270700	-16.530850	-0.266085	 5.715225	 19.176060	-3.692089	 5.027514	 0.245388	-9.378011	-2.350882	 35.473990	 5.254307
-0.641937	-0.126896	 1.249395	-162.572700	 6.903954	 9.816347	 11.507360	-13.929580	 162.259200	-8.183244	-30.967320	-3.215525	-98.775860	 79.586630	 93.796260	-2.385833	 28.452760	 0.000004	 8.515682	-49.189600	 179.743000	-20.312030	-58.090120	-8.009499	 46.737550	 48.781100	-48.033110	 2.384659	 28.388700	-0.000001	 28.657830	-19.620410	-17.722180	 46.872460	 29.639190	-0.457808	-7.897204	-4.350046	-2.315809	-91.776250	 78.527400	-179.999900	 16.829960	 48.139890	-49.088750	-4.543399	-0.090426	-0.487617	 8.902399	-2.611242	-4.612858	-4.131196	 21.524690	 0.986298	-5.167839	 0.733520	 3.519257	-1.378229	 35.397820	-2.634230	-14.016190	 16.384940	-7.701971	-26.144980	 3.178102	 4.915765	 89.782060	 78.203870	-180.000000	 2.065450	 63.436720	 1.167059	-6.660274	-0.158786	 0.448603	 101.237900	-17.380670	 0.388531	 5.715225	 19.176060	-3.692089	 5.027514	 0.245388	-9.378011	-2.350882	 35.473990	 5.254307
-0.640223	-0.125915	 1.249408	-163.362100	 7.219676	 10.122320	 12.615030	-14.418840	 162.012600	-7.643149	-30.918970	-2.931279	-102.832500	 79.540840	 97.294460	-2.385833	 28.452760	 0.000004	 7.270981	-49.595050	 178.804000	-18.869740	-57.866630	-6.760913	 47.571890	 50.597390	-47.593330	 2.384659	 28.388700	-0.000001	 29.476300	-19.333250	-17.878430	 46.580320	 28.917330	 0.918507	-7.881155	-3.785486	-2.754170	-91.776170	 78.527400	-180.000000	 16.783400	 48.035980	-49.076250	-4.151838	-0.093922	-0.487620	 9.150988	-2.462922	-4.724207	-4.131196	 21.524690	 0.986298	-5.167839	 0.733520	 3.519257	-1.378229	 35.397820	-2.634230	-14.005350	 16.588110	-7.702071	-26.103980	 3.026056	 4.811182	 89.782040	 78.203900	-180.000000	 1.870169	 63.591740	 1.455874	-7.376135	-0.164438	 0.446674	 100.134600	-18.305520	 0.995277	 5.715225	 19.176060	-3.692089	 5.027514	 0.245388	-9.378011	-2.350882	 35.473990	 5.254307
-0.638466	-0.124190	 1.249440	-163.768300	 7.525215	 9.768022	 13.381930	-14.495010	 162.441300	-6.840415	-30.647940	-2.496349	-117.902000	 80.040730	 111.271700	-2.385833	 28.452760	 0.000004	 8.509642	-49.674750	 179.764400	-18.290350	-57.679410	-6.255002	 50.914250	 51.908550	-49.919840	 2.384659	 28.388700	-0.000001	 29.966040	-19.499640	-17.374660	 46.522090	 29.142790	 1.177585	-7.839672	-3.836948	-3.056371	-91.776110	 78.527360	 179.999900	 16.818700	 47.975610	-49.152450	-3.842340	-0.096507	-0.487165	 9.383044	-2.309013	-4.835516	-4.131196	 21.524690	 0.986298	-5.167839	 0.733520	 3.519257	-1.378229	 35.397820	-2.634230	-13.912670	 16.834450	-7.783919	-26.048900	 2.997598	 5.127364	 89.782130	 78.203900	 180.000000	 1.329062	 63.616520	 2.144879	-7.984739	-0.168225	 0.442408	 99.175390	-18.576270	 1.803229	 5.715225	 19.176060	-3.692089	 5.027514	 0.245388	-9.378011	-2.350882	 35.473990	 5.254307
